<svg t="1620270792840" class="icon" viewBox="0 0 1024 1024" version="1.1" xmlns="http://www.w3.org/2000/svg" p-id="3874" width="300" height="300"><path d="M184.215538 679.135884l161.435902 160.636403c8.790431 8.790431 24.774324 135.862079 15.983893 144.65251l-31.967786 31.967787c-8.790431 8.790431-23.177356 8.790431-31.967787 0l-16.783393-16.783392-127.869117-127.869118c-51.947146-51.947146-104.693791-103.894292-129.468116-129.468116l-15.983893-15.983893c-8.790431-8.790431-8.790431-23.177356 0-31.967787l31.967787-31.967786c8.790431-8.790431 135.86005 7.992961 144.65251 16.783392z" fill="#D8DBDB" p-id="3875"></path><path d="M244.153616 96.530378c-23.974825 0-43.956214 19.979359-43.956214 43.956214s19.979359 43.956214 43.956214 43.956214 43.956214-19.979359 43.956214-43.956214-19.981389-43.956214-43.956214-43.956214z m135.862078 47.949651c-23.974825 0-43.956214 19.979359-43.956214 43.956214s19.979359 43.956214 43.956214 43.956214 43.956214-19.979359 43.956214-43.956214-19.981389-43.956214-43.956214-43.956214z m499.492102 491.501169c0-23.974825-19.979359-43.956214-43.956214-43.956214s-43.956214 19.979359-43.956214 43.956214c0 23.974825 19.979359 43.956214 43.956214 43.956214s43.956214-19.18189 43.956214-43.956214z m3.995466 91.905865c-23.974825 0-43.956214 19.979359-43.956214 43.956214 0 23.974825 19.979359 43.956214 43.956214 43.956214 23.974825 0 43.956214-19.979359 43.956214-43.956214-0.002029-23.976855-19.981389-43.956214-43.956214-43.956214z" fill="#676767" p-id="3876"></path><path d="M598.993207 267.556211l158.239935 158.239935c17.582891 17.582891 191.804691 504.287066 174.2218 521.869958l-63.136075 63.136074c-17.582891 17.582891-45.553183 17.582891-63.136074 0L455.937666 567.25066 13.187676 219.604531c-17.582891-17.582891-17.582891-45.553183 0-63.136075l63.136074-63.136074c17.582891-17.580862 505.086565 156.640937 522.669457 174.223829z" fill="#D8DBDB" p-id="3877"></path><path d="M1004.980445 19.806879c43.956214 43.956214 4.794965 153.442941-47.152181 206.189586l-571.418606 570.619107c-52.746645 52.746645-241.355369 171.025832-285.309554 127.071648s74.325003-232.562909 127.071648-285.309554l570.619107-571.418606C851.535475 14.212414 961.024231-24.147306 1004.980445 19.806879z" fill="#E4E7E7" p-id="3878"></path><path d="M267.330971 676.739416L837.950079 106.120308c44.753684-44.753684 130.267615-79.119968 181.415262-62.336575-3.195967-9.58993-7.990932-17.582891-14.384896-24.774324-43.956214-43.956214-153.44497-4.796994-206.191615 47.949651L228.169722 637.578167C175.423077 690.324812 57.943389 878.931507 101.098075 922.887721c6.393963 6.393963 16.783392 9.58993 29.569289 9.58993 0.801528-68.728509 91.907894-210.984551 136.663607-255.738235z" fill="#DDE0E0" p-id="3879"></path><path d="M280.116868 428.992113l90.308896 70.327507 230.96594-230.965939-2.398497-2.398497c-4.794965-4.794965-49.548649-23.177356-110.288255-46.352682L280.116868 428.992113z" fill="#C7CACA" p-id="3880"></path><path d="M526.267202 656.760057l278.116092 354.040092c15.983893 15.983893 41.557717 16.783392 59.140608 3.195967L556.635991 626.391268l-30.368789 30.368789z m-127.871146-188.608724L8.392711 162.86242c-11.988427 17.582891-10.389429 41.557717 4.794965 56.742111l354.839591 278.116091 30.368789-29.569289z" fill="#3DB39E" p-id="3881"></path><path d="M368.027267 497.720622l30.368789-29.569289-87.910399-68.730539-30.368789 29.56929 87.910399 68.730538z" fill="#38A592" p-id="3882"></path></svg>