<svg t="1620437831081" class="icon" viewBox="0 0 1024 1024" version="1.1" xmlns="http://www.w3.org/2000/svg" p-id="876" width="300" height="300"><path d="M286.72 232.33a35 35 0 0 1 35 35v504.72a15.08 15.08 0 0 0 15.06 15.06h330.33a35 35 0 0 1 0 70l-317.52 7.46c-67.11 11.71-112.12-18.43-112.12-65.33l14.25-531.91a35 35 0 0 1 35-35z" fill="#2CBF9C" p-id="877"></path><path d="M501 296.63q21.18 8.85 31.77 22.95t3.53 24.71a160.94 160.94 0 0 0-5.3 42.37 312.3 312.3 0 0 1 49.43-7.06q8.8-3.53 10.59-5.3 7-5.3 19.42 0 31.77 21.18 40.6 28.25 14.1 12.36 0 26.48-44.15 45.97-74.15 65.32c1.15 1.18 2.92 2.95 5.29 5.29 1.16 3.53 2.34 5.91 3.53 7.06q3.51 17.67-8.82 19.42-23-1.73-49.43 3.53c-1.19 9.44-1.19 12.36 0 8.83q-3.57 31.77-5.3 54.73-3.55 70.62-15.89 120c-2.37 8.22-4.72 12.94-7.06 14.12q-1.79 0-3.53-10.59-12.37-84.74-8.83-176.49-42.36 14.14-56.49-8.83c0 4.71-0.61 13-1.76 24.71q-1.78 12.38-12.36 5.3-37.08-26.48-40.6-81.21 0-26.48-3.53-31.77-5.31-7-5.3-21.19c-1.19-2.34-1.19-4.11 0-5.29 1.16 0 3.53 0.61 7.06 1.76q22.92 19.45 30 42.37 8.81-38.81 81.21-65.32c3.53-1.15 5.87-8.82 7.06-22.95q1.74-15.88 1.76-47.66c0-2.35-0.6-3.53-1.76-3.53s-2.37 1.18-3.53 3.53q-1.78 15.88-5.3 40.6-1.79 17.67-3.53 0a163.86 163.86 0 0 1-1.78-26.48c1.15-5.88 1.76-15.89 1.76-30q3.54-17.64 21.24-17.66z m-10.6 143q-10.61 5.29-26.5 12.37a28.8 28.8 0 0 1-7.06 1.76q-23 3.57-24.71 19.42-10.59 23-5.3 40.61 15.89-12.33 61.79-22.95c0-4.69 0.57-13.52 1.76-26.49z m91.8-40.6c-4.72 1.18-13 4.14-24.71 8.82Q538 414.92 531 418.44q0 12.36-1.77 40.6v17.65q35.29-21.18 60-67.08c1.16-3.53 1.16-6.45 0-8.83s-3.52-2.92-7.05-1.78z" fill="" p-id="878"></path><path d="M730.35 171.9a42.22 42.22 0 0 1 42.18 42.17v595.86a42.22 42.22 0 0 1-42.18 42.17h-436.7a42.22 42.22 0 0 1-42.18-42.17V214.07a42.22 42.22 0 0 1 42.18-42.17h436.7m0-24h-436.7a66.18 66.18 0 0 0-66.18 66.17v595.86a66.18 66.18 0 0 0 66.18 66.17h436.7a66.18 66.18 0 0 0 66.18-66.17V214.07a66.18 66.18 0 0 0-66.18-66.17z" fill="" p-id="879"></path></svg>